<svg viewBox="0 0 400 300" fill="none" xmlns="http://www.w3.org/2000/svg">
  <!-- Background -->
  <rect x="20" y="20" width="360" height="260" rx="20" fill="#f0f5ff"/>

  <!-- Envelope -->
  <rect x="80" y="80" width="240" height="160" rx="12" fill="white" stroke="#0A1F44" stroke-width="2"/>

  <!-- Envelope flap -->
  <path d="M80 92l120 70 120-70" stroke="#0A1F44" stroke-width="2" fill="none"/>

  <!-- Letter inside -->
  <rect x="120" y="130" width="160" height="90" rx="6" fill="#f8fafc"/>
  <rect x="140" y="150" width="80" height="8" rx="4" fill="#0891b2"/>
  <rect x="140" y="170" width="120" height="5" rx="2.5" fill="#cbd5e1"/>
  <rect x="140" y="185" width="100" height="5" rx="2.5" fill="#cbd5e1"/>
  <rect x="140" y="200" width="60" height="5" rx="2.5" fill="#cbd5e1"/>

  <!-- Send icon -->
  <circle cx="320" cy="70" r="25" fill="#0891b2"/>
  <path d="M310 70l15-8v16l-15-8zm15-8l8 8-8 8" stroke="white" stroke-width="2" stroke-linecap="round" stroke-linejoin="round"/>

  <!-- Decorative elements -->
  <circle cx="60" cy="200" r="15" fill="#0891b2" opacity="0.2"/>
  <rect x="340" y="200" width="25" height="25" rx="5" fill="#0A1F44" opacity="0.1"/>
</svg>
