<svg viewBox="0 0 500 400" fill="none" xmlns="http://www.w3.org/2000/svg">
  <!-- Background shapes -->
  <rect x="50" y="60" width="400" height="280" rx="20" fill="#f0f5ff"/>

  <!-- Document stack -->
  <rect x="100" y="120" width="180" height="220" rx="8" fill="white" stroke="#e2e8f0" stroke-width="2"/>
  <rect x="115" y="150" width="100" height="8" rx="4" fill="#cbd5e1"/>
  <rect x="115" y="170" width="140" height="6" rx="3" fill="#e2e8f0"/>
  <rect x="115" y="185" width="120" height="6" rx="3" fill="#e2e8f0"/>
  <rect x="115" y="200" width="130" height="6" rx="3" fill="#e2e8f0"/>

  <!-- Checkmarks -->
  <circle cx="250" cy="155" r="12" fill="#059669"/>
  <path d="M244 155l4 4 8-8" stroke="white" stroke-width="2" stroke-linecap="round" stroke-linejoin="round"/>

  <circle cx="250" cy="185" r="12" fill="#059669"/>
  <path d="M244 185l4 4 8-8" stroke="white" stroke-width="2" stroke-linecap="round" stroke-linejoin="round"/>

  <!-- Profile card -->
  <rect x="300" y="100" width="140" height="180" rx="12" fill="white" stroke="#e2e8f0" stroke-width="2"/>
  <circle cx="370" cy="150" r="30" fill="#0891b2"/>
  <circle cx="370" cy="145" r="12" fill="white"/>
  <ellipse cx="370" cy="170" rx="18" ry="10" fill="white"/>
  <rect x="320" y="195" width="100" height="8" rx="4" fill="#0A1F44"/>
  <rect x="335" y="215" width="70" height="6" rx="3" fill="#cbd5e1"/>
  <rect x="330" y="235" width="80" height="6" rx="3" fill="#e2e8f0"/>
  <rect x="340" y="255" width="60" height="6" rx="3" fill="#e2e8f0"/>

  <!-- Magnifying glass -->
  <circle cx="400" cy="300" r="35" fill="#0A1F44"/>
  <circle cx="395" cy="295" r="18" fill="none" stroke="white" stroke-width="3"/>
  <line x1="408" y1="308" x2="420" y2="320" stroke="white" stroke-width="3" stroke-linecap="round"/>

  <!-- Floating elements -->
  <circle cx="80" cy="100" r="15" fill="#0891b2" opacity="0.3"/>
  <circle cx="420" cy="80" r="20" fill="#0891b2" opacity="0.2"/>
  <rect x="60" y="300" width="30" height="30" rx="6" fill="#0A1F44" opacity="0.1"/>
</svg>
