<svg viewBox="0 0 200 200" fill="none" xmlns="http://www.w3.org/2000/svg">
  <!-- Report/Results illustration -->
  <circle cx="100" cy="100" r="80" fill="#f0fdf4"/>

  <!-- Document -->
  <rect x="55" y="45" width="90" height="110" rx="8" fill="white" stroke="#0A1F44" stroke-width="2"/>

  <!-- Header -->
  <rect x="70" y="60" width="60" height="8" rx="4" fill="#0A1F44"/>

  <!-- Checkmark items -->
  <circle cx="80" cy="90" r="8" fill="#059669"/>
  <path d="M76 90l3 3 6-6" stroke="white" stroke-width="2" stroke-linecap="round" stroke-linejoin="round"/>
  <rect x="95" y="87" width="35" height="6" rx="3" fill="#cbd5e1"/>

  <circle cx="80" cy="115" r="8" fill="#059669"/>
  <path d="M76 115l3 3 6-6" stroke="white" stroke-width="2" stroke-linecap="round" stroke-linejoin="round"/>
  <rect x="95" y="112" width="40" height="6" rx="3" fill="#cbd5e1"/>

  <circle cx="80" cy="140" r="8" fill="#059669"/>
  <path d="M76 140l3 3 6-6" stroke="white" stroke-width="2" stroke-linecap="round" stroke-linejoin="round"/>
  <rect x="95" y="137" width="30" height="6" rx="3" fill="#cbd5e1"/>

  <!-- Seal/Badge -->
  <circle cx="145" cy="135" r="20" fill="#0891b2"/>
  <path d="M138 135l5 5 10-10" stroke="white" stroke-width="3" stroke-linecap="round" stroke-linejoin="round"/>
</svg>
