<svg viewBox="0 0 500 400" fill="none" xmlns="http://www.w3.org/2000/svg">
  <!-- Background -->
  <rect x="50" y="50" width="400" height="300" rx="20" fill="#f0fdf4"/>

  <!-- Main report document -->
  <rect x="120" y="70" width="260" height="280" rx="12" fill="white" stroke="#e2e8f0" stroke-width="2"/>

  <!-- Header -->
  <rect x="140" y="95" width="80" height="12" rx="4" fill="#0A1F44"/>
  <rect x="300" y="95" width="60" height="12" rx="6" fill="#059669"/>

  <!-- Divider -->
  <line x1="140" y1="125" x2="360" y2="125" stroke="#e2e8f0" stroke-width="2"/>

  <!-- Section 1 -->
  <rect x="140" y="145" width="120" height="8" rx="4" fill="#0A1F44"/>
  <rect x="140" y="165" width="200" height="6" rx="3" fill="#cbd5e1"/>
  <rect x="140" y="180" width="180" height="6" rx="3" fill="#e2e8f0"/>
  <circle cx="350" cy="165" r="15" fill="#059669"/>
  <path d="M344 165l4 4 8-8" stroke="white" stroke-width="2" stroke-linecap="round" stroke-linejoin="round"/>

  <!-- Section 2 -->
  <rect x="140" y="210" width="100" height="8" rx="4" fill="#0A1F44"/>
  <rect x="140" y="230" width="190" height="6" rx="3" fill="#cbd5e1"/>
  <rect x="140" y="245" width="160" height="6" rx="3" fill="#e2e8f0"/>
  <circle cx="350" cy="230" r="15" fill="#059669"/>
  <path d="M344 230l4 4 8-8" stroke="white" stroke-width="2" stroke-linecap="round" stroke-linejoin="round"/>

  <!-- Section 3 -->
  <rect x="140" y="275" width="110" height="8" rx="4" fill="#0A1F44"/>
  <rect x="140" y="295" width="170" height="6" rx="3" fill="#cbd5e1"/>
  <rect x="140" y="310" width="200" height="6" rx="3" fill="#e2e8f0"/>
  <circle cx="350" cy="295" r="15" fill="#d97706"/>
  <path d="M345 290v10M350 295h-10" stroke="white" stroke-width="2" stroke-linecap="round"/>

  <!-- Decorative elements -->
  <circle cx="80" cy="120" r="20" fill="#059669" opacity="0.2"/>
  <circle cx="420" cy="280" r="30" fill="#0891b2" opacity="0.15"/>
  <rect x="400" y="100" width="40" height="40" rx="8" fill="#0A1F44" opacity="0.1"/>
</svg>
