<svg viewBox="0 0 500 300" fill="none" xmlns="http://www.w3.org/2000/svg">
  <!-- Background -->
  <rect x="20" y="20" width="460" height="260" rx="20" fill="#f8fafc"/>

  <!-- Service cards -->
  <rect x="50" y="50" width="120" height="140" rx="12" fill="white" stroke="#e2e8f0" stroke-width="2"/>
  <circle cx="110" cy="90" r="20" fill="#0891b2"/>
  <rect x="70" y="125" width="80" height="8" rx="4" fill="#0A1F44"/>
  <rect x="75" y="145" width="70" height="5" rx="2.5" fill="#cbd5e1"/>
  <rect x="80" y="160" width="60" height="5" rx="2.5" fill="#cbd5e1"/>

  <rect x="190" y="50" width="120" height="140" rx="12" fill="white" stroke="#e2e8f0" stroke-width="2"/>
  <circle cx="250" cy="90" r="20" fill="#0A1F44"/>
  <rect x="210" y="125" width="80" height="8" rx="4" fill="#0A1F44"/>
  <rect x="215" y="145" width="70" height="5" rx="2.5" fill="#cbd5e1"/>
  <rect x="220" y="160" width="60" height="5" rx="2.5" fill="#cbd5e1"/>

  <rect x="330" y="50" width="120" height="140" rx="12" fill="white" stroke="#e2e8f0" stroke-width="2"/>
  <circle cx="390" cy="90" r="20" fill="#059669"/>
  <rect x="350" y="125" width="80" height="8" rx="4" fill="#0A1F44"/>
  <rect x="355" y="145" width="70" height="5" rx="2.5" fill="#cbd5e1"/>
  <rect x="360" y="160" width="60" height="5" rx="2.5" fill="#cbd5e1"/>

  <!-- Bottom decoration -->
  <rect x="100" y="220" width="300" height="40" rx="8" fill="#0A1F44" opacity="0.05"/>
  <rect x="120" y="232" width="100" height="6" rx="3" fill="#0891b2" opacity="0.3"/>
  <rect x="280" y="232" width="80" height="6" rx="3" fill="#0891b2" opacity="0.3"/>
</svg>
