<svg viewBox="0 0 500 300" fill="none" xmlns="http://www.w3.org/2000/svg">
  <!-- Background -->
  <rect x="20" y="20" width="460" height="260" rx="20" fill="#f8fafc"/>

  <!-- Person 1 -->
  <circle cx="125" cy="120" r="40" fill="#0891b2"/>
  <circle cx="125" cy="110" r="16" fill="white"/>
  <ellipse cx="125" cy="135" rx="20" ry="12" fill="white"/>
  <rect x="85" y="175" width="80" height="8" rx="4" fill="#0A1F44"/>
  <rect x="95" y="190" width="60" height="5" rx="2.5" fill="#cbd5e1"/>

  <!-- Person 2 (center, larger) -->
  <circle cx="250" cy="110" r="50" fill="#0A1F44"/>
  <circle cx="250" cy="98" r="20" fill="white"/>
  <ellipse cx="250" cy="128" rx="25" ry="15" fill="white"/>
  <rect x="200" y="175" width="100" height="10" rx="5" fill="#0A1F44"/>
  <rect x="215" y="195" width="70" height="6" rx="3" fill="#cbd5e1"/>

  <!-- Person 3 -->
  <circle cx="375" cy="120" r="40" fill="#0891b2"/>
  <circle cx="375" cy="110" r="16" fill="white"/>
  <ellipse cx="375" cy="135" rx="20" ry="12" fill="white"/>
  <rect x="335" y="175" width="80" height="8" rx="4" fill="#0A1F44"/>
  <rect x="345" y="190" width="60" height="5" rx="2.5" fill="#cbd5e1"/>

  <!-- Connection lines -->
  <line x1="165" y1="120" x2="200" y2="110" stroke="#e2e8f0" stroke-width="2" stroke-dasharray="4 4"/>
  <line x1="300" y1="110" x2="335" y2="120" stroke="#e2e8f0" stroke-width="2" stroke-dasharray="4 4"/>
</svg>
